<svg xmlns="http://www.w3.org/2000/svg" viewBox="0 0 700 500" width="700" height="500">
  <defs>
    <!-- Sky gradient background -->
    <linearGradient id="sky" x1="0" y1="0" x2="0" y2="1">
      <stop offset="0%" stop-color="#4a90d9"/>
      <stop offset="70%" stop-color="#87ceeb"/>
      <stop offset="100%" stop-color="#c8e6f5"/>
    </linearGradient>
    <!-- Ramp surface gradient -->
    <linearGradient id="rampGrad" x1="0" y1="0" x2="0" y2="1">
      <stop offset="0%" stop-color="#3a3a3a"/>
      <stop offset="100%" stop-color="#1a1a1a"/>
    </linearGradient>
    <!-- Coping metallic gradient -->
    <linearGradient id="copingGrad" x1="0" y1="0" x2="0" y2="1">
      <stop offset="0%" stop-color="#e0e0e0"/>
      <stop offset="50%" stop-color="#999"/>
      <stop offset="100%" stop-color="#666"/>
    </linearGradient>
  </defs>

  <!-- === SKY BACKGROUND === -->
  <rect width="700" height="500" fill="url(#sky)"/>

  <!-- === CLOUDS === -->
  <g opacity="0.7">
    <ellipse cx="150" cy="60" rx="50" ry="18" fill="white"/>
    <ellipse cx="180" cy="55" rx="35" ry="14" fill="white"/>
    <ellipse cx="120" cy="58" rx="30" ry="12" fill="white"/>
    <ellipse cx="520" cy="90" rx="45" ry="16" fill="white"/>
    <ellipse cx="550" cy="85" rx="30" ry="12" fill="white"/>
  </g>

  <!-- === SUN === -->
  <circle cx="620" cy="50" r="30" fill="#fff3b0" opacity="0.9"/>
  <circle cx="620" cy="50" r="22" fill="#ffe066"/>

  <!-- === HALF-PIPE RAMP STRUCTURE === -->
  <!-- Main ramp body: two quarter-pipes connected by flat bottom -->
  <path d="M 0,180 L 100,180 C 100,320 180,400 250,400 L 350,400 C 420,400 500,320 500,180 L 700,180 L 700,500 L 0,500 Z"
        fill="url(#rampGrad)"/>

  <!-- Ramp surface highlight (riding surface) -->
  <path d="M 100,180 C 100,320 180,400 250,400 L 350,400 C 420,400 500,320 500,180"
        fill="none" stroke="#5a5a5a" stroke-width="5" stroke-linecap="round"/>

  <!-- Transition shading lines for depth -->
  <path d="M 110,190 C 110,310 185,390 250,390" fill="none" stroke="#4a4a4a" stroke-width="1" opacity="0.5"/>
  <path d="M 120,200 C 120,300 190,385 250,385" fill="none" stroke="#444" stroke-width="1" opacity="0.4"/>
  <path d="M 490,190 C 490,310 415,390 350,390" fill="none" stroke="#4a4a4a" stroke-width="1" opacity="0.5"/>
  <path d="M 480,200 C 480,300 410,385 350,385" fill="none" stroke="#444" stroke-width="1" opacity="0.4"/>

  <!-- === DECK PLATFORMS (top of ramp) === -->
  <rect x="0" y="174" width="100" height="6" fill="#4d4d4d" rx="1"/>
  <rect x="500" y="174" width="200" height="6" fill="#4d4d4d" rx="1"/>

  <!-- === COPING (metal pipes at ramp edges) === -->
  <circle cx="100" cy="180" r="5.5" fill="url(#copingGrad)" stroke="#555" stroke-width="1"/>
  <circle cx="500" cy="180" r="5.5" fill="url(#copingGrad)" stroke="#555" stroke-width="1"/>
  <!-- Coping shine -->
  <circle cx="98" cy="178" r="2" fill="white" opacity="0.6"/>
  <circle cx="498" cy="178" r="2" fill="white" opacity="0.6"/>

  <!-- === GROUND TEXTURE === -->
  <line x1="0" y1="180" x2="0" y2="500" stroke="#2a2a2a" stroke-width="2"/>
  <line x1="700" y1="180" x2="700" y2="500" stroke="#2a2a2a" stroke-width="2"/>

  <!-- === SKATER GROUP === -->
  <!-- This outer group is positioned by animateMotion along the ramp + aerial path -->
  <!-- Pendulum physics: ease-in (accelerate downhill), ease-out (decelerate uphill) -->
  <!-- Aerial: parabolic arc via quadratic bezier, constant horizontal speed -->
  <g>
    <animateMotion
      path="M 100,180 C 100,320 180,400 250,400 L 350,400 C 420,400 500,320 500,180 Q 580,-60 489,260 C 469,330 430,400 350,400 L 250,400 C 180,400 100,320 100,180"
      dur="5s"
      repeatCount="indefinite"
      calcMode="spline"
      keyPoints="0;0.182;0.244;0.426;0.623;0.756;0.818;1"
      keyTimes="0;0.15;0.18;0.36;0.64;0.75;0.78;1"
      keySplines="0.4 0 1 1;0 0 1 1;0 0 0.6 1;0 0 1 1;0.4 0 1 1;0 0 1 1;0 0 0.6 1"
      rotate="0"
    />

    <!-- Inner group: handles the 360° backflip rotation during aerial -->
    <!-- Rotation occurs between 39%-61% of the cycle (mid-aerial) at constant angular rate -->
    <g>
      <animateTransform
        attributeName="transform"
        type="rotate"
        values="0;0;360;360"
        keyTimes="0;0.39;0.61;1"
        dur="5s"
        repeatCount="indefinite"
        calcMode="linear"
      />

      <!-- === SKATEBOARD (deck + 4 trucks/wheels) === -->
      <!-- Far wheels (representing wheels on opposite side, slightly offset for depth) -->
      <circle cx="-12" cy="7" r="3.2" fill="#b8960a" stroke="#7a6200" stroke-width="0.8"/>
      <circle cx="12" cy="7" r="3.2" fill="#b8960a" stroke="#7a6200" stroke-width="0.8"/>
      <!-- Far trucks -->
      <rect x="-14" y="2.5" width="4" height="4" rx="1" fill="#666"/>
      <rect x="10" y="2.5" width="4" height="4" rx="1" fill="#666"/>
      <!-- Deck (board graphic) -->
      <rect x="-18" y="-3" width="36" height="6" rx="3" fill="#e63946"/>
      <rect x="-14" y="-2" width="8" height="4" rx="1" fill="#f4a261" opacity="0.7"/>
      <!-- Near trucks -->
      <rect x="-13" y="3" width="5" height="5" rx="1" fill="#888" stroke="#555" stroke-width="0.5"/>
      <rect x="8" y="3" width="5" height="5" rx="1" fill="#888" stroke="#555" stroke-width="0.5"/>
      <!-- Near wheels -->
      <circle cx="-10.5" cy="9" r="4" fill="#ffd166" stroke="#c9a800" stroke-width="1"/>
      <circle cx="10.5" cy="9" r="4" fill="#ffd166" stroke="#c9a800" stroke-width="1"/>
      <!-- Wheel axle dots -->
      <circle cx="-10.5" cy="9" r="1.2" fill="#555"/>
      <circle cx="10.5" cy="9" r="1.2" fill="#555"/>

      <!-- === SKATER BODY (stick figure with filled elements) === -->
      <!-- Helmet -->
      <circle cx="0" cy="-46" r="7" fill="#2a9d8f" stroke="#1d7a6f" stroke-width="1"/>
      <!-- Head -->
      <circle cx="0" cy="-44" r="5.5" fill="#f4a261"/>
      <!-- Visor -->
      <path d="M -4,-44 Q 0,-41 4,-44" fill="none" stroke="#333" stroke-width="1.5" stroke-linecap="round"/>
      <!-- Torso -->
      <path d="M -5,-37 L -4,-16 L 4,-16 L 5,-37 Z" fill="#264653" stroke="#1a3038" stroke-width="0.5"/>
      <!-- Shirt detail -->
      <line x1="0" y1="-36" x2="0" y2="-18" stroke="#2a9d8f" stroke-width="1.5"/>
      <!-- Left arm (extended for balance) -->
      <line x1="-4" y1="-34" x2="-16" y2="-26" stroke="#f4a261" stroke-width="3" stroke-linecap="round"/>
      <line x1="-16" y1="-26" x2="-22" y2="-30" stroke="#f4a261" stroke-width="2.5" stroke-linecap="round"/>
      <!-- Right arm -->
      <line x1="4" y1="-34" x2="14" y2="-28" stroke="#f4a261" stroke-width="3" stroke-linecap="round"/>
      <line x1="14" y1="-28" x2="20" y2="-32" stroke="#f4a261" stroke-width="2.5" stroke-linecap="round"/>
      <!-- Left leg (bent, front foot on board) -->
      <line x1="-3" y1="-16" x2="-8" y2="-6" stroke="#2a9d8f" stroke-width="3.5" stroke-linecap="round"/>
      <line x1="-8" y1="-6" x2="-9" y2="0" stroke="#2a9d8f" stroke-width="3" stroke-linecap="round"/>
      <!-- Left shoe -->
      <rect x="-13" y="-2" width="8" height="3" rx="1.5" fill="#333"/>
      <!-- Right leg (bent, back foot on board) -->
      <line x1="3" y1="-16" x2="8" y2="-6" stroke="#2a9d8f" stroke-width="3.5" stroke-linecap="round"/>
      <line x1="8" y1="-6" x2="9" y2="0" stroke="#2a9d8f" stroke-width="3" stroke-linecap="round"/>
      <!-- Right shoe -->
      <rect x="5" y="-2" width="8" height="3" rx="1.5" fill="#333"/>
    </g>
  </g>

  <!-- === SPEED LINES (appear during aerial for dramatic effect) === -->
  <g opacity="0">
    <animate attributeName="opacity" values="0;0;0.6;0.6;0;0" keyTimes="0;0.38;0.42;0.58;0.62;1" dur="5s" repeatCount="indefinite"/>
    <animateMotion
      path="M 100,180 C 100,320 180,400 250,400 L 350,400 C 420,400 500,320 500,180 Q 580,-60 489,260 C 469,330 430,400 350,400 L 250,400 C 180,400 100,320 100,180"
      dur="5s" repeatCount="indefinite"
      calcMode="spline"
      keyPoints="0;0.182;0.244;0.426;0.623;0.756;0.818;1"
      keyTimes="0;0.15;0.18;0.36;0.64;0.75;0.78;1"
      keySplines="0.4 0 1 1;0 0 1 1;0 0 0.6 1;0 0 1 1;0.4 0 1 1;0 0 1 1;0 0 0.6 1"
    />
    <!-- Motion blur lines behind skater -->
    <line x1="10" y1="-20" x2="25" y2="-20" stroke="white" stroke-width="2" stroke-linecap="round" opacity="0.7"/>
    <line x1="12" y1="-10" x2="30" y2="-10" stroke="white" stroke-width="1.5" stroke-linecap="round" opacity="0.5"/>
    <line x1="10" y1="0" x2="22" y2="0" stroke="white" stroke-width="2" stroke-linecap="round" opacity="0.6"/>
    <line x1="12" y1="10" x2="26" y2="10" stroke="white" stroke-width="1.5" stroke-linecap="round" opacity="0.4"/>
  </g>

  <!-- === RAMP LOGO / DECORATION === -->
  <text x="300" y="470" font-family="Arial, sans-serif" font-size="14" font-weight="bold" fill="#555" text-anchor="middle">VERT RAMP</text>

  <!-- === PHYSICS NOTES (invisible, for documentation) === -->
  <!-- 
    Pendulum behavior: keySplines ease-in/out simulate gravity acceleration/deceleration.
    At the coping (top), speed approaches zero (pendulum apex).
    At the flat bottom, speed is maximum.
    Aerial: quadratic bezier approximates parabolic trajectory under gravity.
    Hang time (~1.4s) corresponds to ~2.4m above coping — realistic for vert skating.
    360° rotation at constant angular rate (no torque in air) completes before landing.
    Seamless loop: path starts/ends at same point with zero velocity at apex.
  -->
</svg>